<svg width="204" height="181" viewBox="0 0 204 181" fill="none" xmlns="http://www.w3.org/2000/svg">
<g filter="url(#filter0_d_176_856)">
<rect x="50.9414" width="166.898" height="110.55" rx="10" transform="rotate(25.9087 50.9414 0)" fill="white" shape-rendering="crispEdges"/>
<path d="M88.4387 68.0208L124.418 85.4983L141.896 49.5186L105.916 32.0411L88.4387 68.0208Z" fill="#24242A"/>
<path d="M35.7235 60.4232L37.417 51.7738L38.6583 52.3768L37.2064 59.1557L41.6374 53.8239L42.8247 54.4007L41.3728 61.1796L45.793 55.8426L47.0559 56.456L41.2932 63.1287L39.9331 62.4681L41.2243 56.1847L37.0835 61.0839L35.7235 60.4232ZM46.3663 65.7531C45.805 65.4805 45.3787 65.1222 45.0874 64.6783C44.8033 64.2379 44.6598 63.7368 44.6569 63.1751C44.6612 62.6169 44.8102 62.0356 45.1039 61.4311C45.3975 60.8267 45.7606 60.3538 46.1932 60.0125C46.6365 59.6675 47.119 59.4706 47.6408 59.4217C48.1662 59.3656 48.7023 59.4703 49.2492 59.736C49.7673 59.9877 50.1648 60.332 50.4417 60.7689C50.7221 61.1986 50.8602 61.6926 50.8558 62.2508C50.8587 62.8125 50.7046 63.4136 50.3935 64.054L50.2519 64.3454L46.1286 62.3425C45.8848 62.9178 45.8278 63.4104 45.9577 63.8204C46.0948 64.2338 46.3937 64.5524 46.8542 64.7761C47.1924 64.9404 47.5115 64.9976 47.8115 64.9477C48.1115 64.8977 48.3693 64.7606 48.585 64.5363L49.7356 65.1886C49.3258 65.6477 48.8175 65.9344 48.2105 66.0487C47.6143 66.1593 46.9995 66.0607 46.3663 65.7531ZM46.5481 61.479L49.4625 62.8947C49.6747 62.3663 49.7107 61.9168 49.5704 61.5463C49.4374 61.1793 49.173 60.8997 48.7773 60.7075C48.3671 60.5082 47.966 60.4735 47.5739 60.6032C47.1925 60.7292 46.8506 61.0211 46.5481 61.479ZM51.4839 68.079C51.1097 67.8972 50.8546 67.6533 50.7188 67.3471C50.5829 67.041 50.618 66.6756 50.8243 66.251L53.9545 59.8071L55.0986 60.3629L52.0209 66.6989C51.9579 66.8284 51.9431 66.9413 51.9764 67.0375C52.0169 67.1372 52.1019 67.2186 52.2315 67.2815L52.6848 67.5017L52.2287 68.4408L51.4839 68.079ZM55.5053 70.1925C54.9584 69.9268 54.5393 69.5721 54.2479 69.1282C53.9566 68.6842 53.8095 68.1814 53.8067 67.6197C53.8038 67.058 53.9492 66.475 54.2428 65.8705C54.5364 65.266 54.9032 64.7949 55.343 64.4571C55.7862 64.1121 56.2724 63.9169 56.8014 63.8715C57.3339 63.8189 57.8736 63.9254 58.4205 64.1911C58.8883 64.4183 59.2618 64.702 59.5412 65.0423C59.8313 65.3789 60.0127 65.7561 60.0855 66.1739C60.1655 66.5952 60.1295 67.0446 59.9775 67.5222L58.7479 67.005C58.8721 66.6028 58.8591 66.2452 58.7088 65.932C58.562 65.6117 58.3051 65.3624 57.9381 65.1841C57.456 64.9499 56.9908 64.9463 56.5426 65.1733C56.1051 65.3965 55.7343 65.8212 55.4302 66.4473C55.126 67.0733 55.0197 67.6309 55.1112 68.12C55.2134 68.6054 55.5055 68.9653 55.9876 69.1995C56.3546 69.3777 56.7094 69.4255 57.0519 69.3429C57.398 69.2531 57.7011 69.0135 57.9614 68.6241L59.1281 69.2708C58.8501 69.6783 58.5173 69.988 58.1298 70.2C57.7494 70.4155 57.332 70.524 56.8776 70.5256C56.4305 70.5307 55.973 70.4197 55.5053 70.1925ZM61.482 73.0957C60.9351 72.8301 60.516 72.4753 60.2246 72.0314C59.9333 71.5875 59.7862 71.0847 59.7834 70.523C59.7805 69.9613 59.9259 69.3782 60.2195 68.7737C60.5166 68.1621 60.8851 67.6874 61.3249 67.3496C61.7647 67.0118 62.2491 66.8202 62.7781 66.7748C63.3106 66.7222 63.8503 66.8287 64.3972 67.0943C64.9441 67.36 65.3615 67.7184 65.6493 68.1695C65.9406 68.6134 66.0894 69.1126 66.0958 69.6671C66.1022 70.2216 65.9568 70.8047 65.6597 71.4163C65.366 72.0208 64.9976 72.4955 64.5543 72.8405C64.111 73.1855 63.6248 73.3807 63.0958 73.4261C62.5668 73.4715 62.0289 73.3614 61.482 73.0957ZM61.9643 72.1027C62.4537 72.3404 62.9171 72.3476 63.3546 72.1243C63.7957 71.8939 64.1682 71.4656 64.4723 70.8396C64.7764 70.2135 64.881 69.6595 64.786 69.1776C64.6946 68.6885 64.4042 68.3251 63.9148 68.0874C63.4327 67.8532 62.9675 67.8496 62.5193 68.0765C62.0818 68.2998 61.711 68.7245 61.4069 69.3505C61.1027 69.9765 60.9964 70.5341 61.0879 71.0233C61.1901 71.5087 61.4822 71.8685 61.9643 72.1027ZM65.4212 74.8492L68.2107 69.1068L69.2577 69.6154L68.5979 71.056L68.4894 70.9499C68.7079 70.6647 68.9506 70.449 69.2172 70.3029C69.4911 70.1602 69.7765 70.0854 70.0734 70.0784C70.3703 70.0714 70.659 70.1361 70.9397 70.2724C71.429 70.5101 71.7602 70.8444 71.9333 71.2754C72.1099 71.6991 72.1207 72.1713 71.9656 72.6919L71.7821 72.6027C72.0112 72.296 72.2555 72.0678 72.5149 71.9181C72.7851 71.7647 73.0722 71.6863 73.3763 71.6828C73.6804 71.6793 73.9871 71.7527 74.2966 71.9031C74.6995 72.0988 74.9994 72.3512 75.1962 72.6602C75.4036 72.9655 75.5006 73.3151 75.4872 73.7088C75.4811 74.106 75.3644 74.5385 75.1372 75.0062L73.344 78.6977L72.1998 78.142L73.8567 74.7311C74.0979 74.2346 74.1897 73.8167 74.1321 73.4774C74.0746 73.1382 73.8623 72.8794 73.4953 72.7012C73.2578 72.5858 73.0195 72.5456 72.7801 72.5806C72.5408 72.6155 72.3148 72.7236 72.1022 72.905C71.8968 73.0898 71.7155 73.3441 71.5582 73.6679L69.9223 77.0356L68.8321 76.5061L70.468 73.1384C70.7057 72.649 70.8065 72.2311 70.7703 71.8844C70.7448 71.5341 70.5378 71.2645 70.1492 71.0758C69.9045 70.9569 69.6625 70.915 69.4232 70.9499C69.1911 70.9883 68.967 71.1018 68.7509 71.2904C68.5383 71.4717 68.3551 71.7207 68.2013 72.0373L66.5654 75.405L65.4212 74.8492ZM77.1458 80.7046C76.5845 80.432 76.1582 80.0737 75.8669 79.6298C75.5827 79.1894 75.4393 78.6883 75.4364 78.1266C75.4407 77.5684 75.5897 76.9871 75.8833 76.3826C76.177 75.7781 76.5401 75.3053 76.9727 74.964C77.416 74.619 77.8985 74.4221 78.4203 74.3731C78.9456 74.317 79.4817 74.4218 80.0286 74.6875C80.5467 74.9391 80.9443 75.2834 81.2212 75.7204C81.5016 76.1501 81.6397 76.644 81.6353 77.2022C81.6382 77.7639 81.4841 78.365 81.173 79.0055L81.0314 79.2969L76.9081 77.294C76.6643 77.8692 76.6073 78.3619 76.7372 78.7718C76.8743 79.1853 77.1732 79.5039 77.6337 79.7276C77.9719 79.8919 78.291 79.9491 78.591 79.8991C78.891 79.8492 79.1488 79.712 79.3645 79.4877L80.5151 80.14C80.1053 80.5991 79.597 80.8858 78.99 81.0001C78.3938 81.1107 77.779 81.0122 77.1458 80.7046ZM77.3276 76.4305L80.2419 77.8461C80.4541 77.3177 80.4901 76.8683 80.3499 76.4978C80.2169 76.1308 79.9525 75.8512 79.5567 75.6589C79.1466 75.4597 78.7455 75.4249 78.3534 75.5546C77.972 75.6807 77.63 75.9726 77.3276 76.4305ZM85.8906 84.7924C85.3437 84.5268 85.0019 84.2051 84.8652 83.8274C84.7285 83.4497 84.7895 82.9946 85.0481 82.4621L87.7379 76.9248L88.8821 77.4806L86.2342 82.9315C86.1049 83.1978 86.0733 83.4092 86.1395 83.5659C86.2057 83.7226 86.3576 83.8586 86.595 83.9739L87.4154 84.3724L86.9592 85.3115L85.8906 84.7924ZM85.7521 78.7884L86.2082 77.8494L89.7486 79.5691L89.2925 80.5082L85.7521 78.7884ZM90.2587 87.0743C89.7118 86.8087 89.2927 86.4539 89.0014 86.01C88.71 85.5661 88.5629 85.0633 88.5601 84.5016C88.5572 83.9399 88.7026 83.3568 88.9962 82.7523C89.2934 82.1407 89.6618 81.666 90.1016 81.3282C90.5414 80.9904 91.0258 80.7988 91.5548 80.7534C92.0873 80.7007 92.627 80.8073 93.1739 81.0729C93.7208 81.3386 94.1382 81.697 94.426 82.1481C94.7173 82.592 94.8662 83.0912 94.8725 83.6457C94.8789 84.2002 94.7335 84.7833 94.4364 85.3949C94.1427 85.9994 93.7743 86.4741 93.331 86.8191C92.8877 87.1641 92.4016 87.3593 91.8725 87.4047C91.3435 87.4501 90.8056 87.34 90.2587 87.0743ZM90.7411 86.0813C91.2304 86.319 91.6938 86.3262 92.1313 86.1029C92.5724 85.8725 92.9449 85.4442 93.249 84.8182C93.5531 84.1921 93.6577 83.6381 93.5627 83.1562C93.4713 82.6671 93.1809 82.3037 92.6915 82.066C92.2094 81.8318 91.7442 81.8282 91.296 82.0551C90.8585 82.2784 90.4877 82.703 90.1836 83.3291C89.8795 83.9551 89.7731 84.5127 89.8646 85.0019C89.9668 85.4873 90.2589 85.8471 90.7411 86.0813ZM97.0468 90.2116L100.769 82.548L101.935 83.1142L98.4223 90.3462L98.1164 89.4105L102.466 91.5235L101.947 92.5921L97.0468 90.2116ZM105.132 94.2992C104.571 94.0265 104.144 93.6682 103.853 93.2243C103.569 92.7839 103.425 92.2829 103.423 91.7212C103.427 91.163 103.576 90.5816 103.869 89.9772C104.163 89.3727 104.526 88.8998 104.959 88.5586C105.402 88.2136 105.885 88.0166 106.406 87.9677C106.932 87.9116 107.468 88.0164 108.015 88.282C108.533 88.5337 108.93 88.878 109.207 89.3149C109.488 89.7446 109.626 90.2386 109.621 90.7968C109.624 91.3585 109.47 91.9596 109.159 92.6L109.018 92.8915L104.894 90.8885C104.65 91.4638 104.593 91.9564 104.723 92.3664C104.86 92.7799 105.159 93.0985 105.62 93.3222C105.958 93.4865 106.277 93.5436 106.577 93.4937C106.877 93.4437 107.135 93.3066 107.351 93.0823L108.501 93.7346C108.091 94.1937 107.583 94.4804 106.976 94.5947C106.38 94.7053 105.765 94.6068 105.132 94.2992ZM105.314 90.025L108.228 91.4407C108.44 90.9123 108.476 90.4629 108.336 90.0924C108.203 89.7254 107.939 89.4457 107.543 89.2535C107.133 89.0542 106.732 89.0195 106.34 89.1492C105.958 89.2752 105.616 89.5672 105.314 90.025ZM108.945 95.9912L112.667 88.3275L113.812 88.8833L111.499 93.6434L115.458 92.0577L116.904 92.7603L113.485 94.0876L114.201 98.5446L112.884 97.905L112.372 94.4277L110.833 95.0142L110.089 96.547L108.945 95.9912ZM117.061 100.094C116.521 99.8315 116.104 99.5268 115.81 99.1795C115.524 98.8358 115.35 98.471 115.288 98.0853C115.23 97.6924 115.279 97.2983 115.436 96.9029L116.638 97.4205C116.542 97.765 116.556 98.0833 116.681 98.3753C116.806 98.6672 117.088 98.9198 117.527 99.133C117.887 99.3078 118.199 99.3883 118.464 99.3746C118.729 99.3608 118.922 99.228 119.044 98.9761C119.111 98.8394 119.131 98.7068 119.104 98.5783C119.088 98.4461 118.999 98.3004 118.836 98.1413C118.677 97.9749 118.422 97.7668 118.072 97.5167C117.556 97.1326 117.171 96.79 116.917 96.4888C116.664 96.1876 116.522 95.8922 116.494 95.6027C116.466 95.3132 116.528 95.0102 116.682 94.6936C116.937 94.1683 117.34 93.8345 117.889 93.6922C118.446 93.5535 119.094 93.6641 119.836 94.0241C120.332 94.2653 120.708 94.5544 120.962 94.8914C121.22 95.2212 121.372 95.5755 121.42 95.9542C121.477 96.3292 121.446 96.7052 121.325 97.0823L120.117 96.5756C120.179 96.3566 120.191 96.1489 120.153 95.9526C120.126 95.7525 120.045 95.571 119.911 95.4079C119.78 95.2377 119.596 95.0949 119.358 94.9795C118.991 94.8013 118.683 94.7404 118.433 94.7969C118.183 94.8535 118.002 94.9969 117.89 95.2271C117.807 95.3998 117.778 95.5594 117.805 95.7058C117.839 95.8557 117.932 96.012 118.084 96.1749C118.239 96.3305 118.46 96.5087 118.745 96.7094C119.293 97.1002 119.7 97.4534 119.964 97.7688C120.233 98.077 120.383 98.3722 120.415 98.6545C120.446 98.9368 120.387 99.2327 120.237 99.5421C120.062 99.9019 119.813 100.159 119.489 100.313C119.165 100.467 118.794 100.526 118.375 100.492C117.959 100.45 117.521 100.317 117.061 100.094ZM122.296 102.637C121.699 102.347 121.287 101.977 121.06 101.529C120.84 101.085 120.85 100.614 121.092 100.117C121.333 99.6209 121.667 99.3075 122.095 99.1774C122.534 99.0436 123.096 99.0675 123.781 99.2493L125.94 99.831C126.157 99.3849 126.213 99.0032 126.109 98.686C126.009 98.3615 125.754 98.0997 125.344 97.9004C124.977 97.7222 124.649 97.6651 124.36 97.7292C124.074 97.7862 123.815 97.9537 123.582 98.2319L122.442 97.5848C122.83 97.0616 123.316 96.7376 123.901 96.6128C124.494 96.4915 125.132 96.5969 125.816 96.929C126.593 97.3065 127.081 97.8018 127.282 98.4149C127.493 99.0243 127.416 99.7032 127.053 100.452L125.967 102.686C125.901 102.823 125.875 102.93 125.891 103.009C125.917 103.084 125.983 103.147 126.091 103.2L126.296 103.299L125.856 104.206C125.817 104.196 125.756 104.175 125.673 104.144C125.59 104.112 125.506 104.076 125.419 104.034C125.175 103.915 124.982 103.772 124.84 103.606C124.706 103.443 124.639 103.25 124.64 103.029C124.645 102.799 124.722 102.53 124.873 102.221L124.965 102.332C124.785 102.556 124.551 102.718 124.262 102.818C123.981 102.922 123.665 102.959 123.314 102.931C122.973 102.899 122.634 102.801 122.296 102.637ZM122.92 101.819C123.265 101.987 123.592 102.066 123.899 102.055C124.21 102.037 124.492 101.943 124.744 101.771C124.996 101.6 125.196 101.364 125.342 101.062L125.521 100.695L123.679 100.2C123.303 100.097 123.007 100.083 122.793 100.157C122.59 100.227 122.436 100.37 122.331 100.586C122.213 100.831 122.203 101.062 122.302 101.279C122.412 101.492 122.618 101.672 122.92 101.819ZM126.822 104.675L129.612 98.933L130.659 99.4416L129.962 100.984L129.881 100.905C130.212 100.425 130.554 100.124 130.906 100.002C131.266 99.8836 131.652 99.9239 132.062 100.123L132.612 100.391L132.114 101.416L131.564 101.149C131.276 101.009 131.012 100.938 130.772 100.938C130.533 100.937 130.315 101.009 130.12 101.154C129.932 101.303 129.763 101.532 129.613 101.842L127.966 105.231L126.822 104.675ZM132.204 107.45C131.607 107.16 131.195 106.791 130.968 106.342C130.748 105.898 130.759 105.427 131 104.931C131.241 104.434 131.576 104.121 132.004 103.991C132.442 103.857 133.004 103.881 133.69 104.062L135.849 104.644C136.065 104.198 136.122 103.816 136.018 103.499C135.918 103.175 135.662 102.913 135.252 102.714C134.885 102.535 134.557 102.478 134.268 102.542C133.982 102.599 133.723 102.767 133.49 103.045L132.35 102.398C132.738 101.875 133.224 101.551 133.81 101.426C134.402 101.305 135.04 101.41 135.724 101.742C136.501 102.12 136.99 102.615 137.19 103.228C137.401 103.837 137.325 104.516 136.961 105.265L135.876 107.499C135.809 107.636 135.784 107.743 135.799 107.822C135.825 107.897 135.892 107.96 136 108.013L136.205 108.113L135.765 109.019C135.725 109.009 135.664 108.988 135.581 108.957C135.499 108.926 135.414 108.889 135.328 108.847C135.083 108.728 134.89 108.586 134.749 108.419C134.614 108.256 134.548 108.064 134.549 107.842C134.553 107.613 134.631 107.343 134.781 107.034L134.874 107.146C134.694 107.37 134.459 107.531 134.171 107.631C133.889 107.735 133.573 107.772 133.222 107.744C132.882 107.712 132.543 107.614 132.204 107.45ZM132.828 106.632C133.174 106.8 133.5 106.879 133.808 106.868C134.119 106.85 134.4 106.756 134.653 106.585C134.905 106.414 135.104 106.177 135.251 105.875L135.429 105.508L133.588 105.014C133.211 104.911 132.916 104.896 132.702 104.97C132.499 105.04 132.345 105.183 132.24 105.399C132.121 105.644 132.111 105.875 132.21 106.092C132.32 106.305 132.526 106.486 132.828 106.632Z" fill="#24242A"/>
<path d="M28.7728 76.1067C28.2547 75.855 27.8563 75.5147 27.5777 75.0859C27.3017 74.6516 27.1619 74.1568 27.1582 73.6014C27.1545 73.0459 27.3034 72.4579 27.6049 71.8372C27.9038 71.222 28.2699 70.7428 28.7034 70.3997C29.1449 70.0539 29.6216 69.8552 30.1336 69.8037C30.6481 69.7468 31.1699 69.8469 31.6988 70.1038C32.4112 70.4498 32.8779 70.8967 33.0988 71.4442C33.3198 71.9918 33.3362 72.6102 33.1482 73.2993L32.2099 72.9035C32.3257 72.4728 32.3132 72.0865 32.1724 71.7447C32.0343 71.3974 31.7466 71.1176 31.3095 70.9052C30.9587 70.7348 30.6105 70.6758 30.2649 70.728C29.9248 70.7829 29.6018 70.9396 29.2962 71.198C28.996 71.459 28.7344 71.8189 28.5116 72.2777C28.2888 72.7364 28.1675 73.1645 28.1479 73.5619C28.1337 73.9618 28.2142 74.3111 28.3894 74.6097C28.5645 74.9082 28.8221 75.1401 29.1621 75.3052C29.6263 75.5307 30.0442 75.5836 30.4158 75.4639C30.7954 75.3415 31.1225 75.0802 31.397 74.6799L32.2882 75.1728C32.0057 75.5759 31.6818 75.8855 31.3167 76.1017C30.9515 76.3178 30.553 76.4311 30.1211 76.4414C29.6918 76.4463 29.2424 76.3347 28.7728 76.1067ZM33.087 78.0422C32.8064 77.9059 32.6151 77.723 32.5132 77.4933C32.4113 77.2637 32.4377 76.9897 32.5923 76.6713L34.94 71.8383L35.7981 72.2552L33.4898 77.0072C33.4426 77.1043 33.4315 77.189 33.4565 77.2612C33.4868 77.3359 33.5506 77.3969 33.6477 77.4441L33.9877 77.6093L33.6456 78.3136L33.087 78.0422ZM36.1031 79.6274C35.6821 79.4229 35.3624 79.1542 35.1439 78.8213C34.9308 78.491 34.8232 78.1152 34.821 77.6939C34.8243 77.2752 34.936 76.8392 35.1563 76.3859C35.3765 75.9325 35.6488 75.5779 35.9733 75.3219C36.3057 75.0632 36.6676 74.9155 37.059 74.8788C37.453 74.8367 37.8551 74.9153 38.2652 75.1145C38.6538 75.3033 38.952 75.5615 39.1597 75.8892C39.37 76.2115 39.4735 76.582 39.4702 77.0006C39.4724 77.4219 39.3568 77.8727 39.1235 78.353L39.0173 78.5716L35.9248 77.0694C35.7419 77.5009 35.6992 77.8703 35.7967 78.1778C35.8995 78.4879 36.1236 78.7269 36.469 78.8946C36.7227 79.0179 36.962 79.0607 37.187 79.0233C37.412 78.9858 37.6053 78.883 37.7671 78.7147L38.6301 79.204C38.3227 79.5483 37.9415 79.7633 37.4863 79.849C37.0391 79.932 36.578 79.8581 36.1031 79.6274ZM36.2394 76.4218L38.4252 77.4835C38.5844 77.0872 38.6114 76.7502 38.5062 76.4723C38.4064 76.197 38.2081 75.9873 37.9113 75.8431C37.6037 75.6937 37.3028 75.6676 37.0088 75.7649C36.7227 75.8594 36.4663 76.0784 36.2394 76.4218ZM40.2087 81.6217C39.7607 81.4041 39.4516 81.1272 39.2814 80.7911C39.1166 80.4575 39.1246 80.1046 39.3055 79.7322C39.4864 79.3598 39.7373 79.1248 40.0582 79.0272C40.3871 78.9268 40.8086 78.9448 41.3227 79.0811L42.9418 79.5174C43.1044 79.1828 43.1467 78.8966 43.0688 78.6586C42.9936 78.4153 42.8022 78.2189 42.4945 78.0695C42.2193 77.9358 41.9733 77.893 41.7564 77.9411C41.5423 77.9838 41.3478 78.1094 41.1731 78.3181L40.3182 77.8328C40.6089 77.4403 40.9737 77.1973 41.4128 77.1037C41.8572 77.0128 42.3357 77.0918 42.8484 77.3409C43.4313 77.624 43.7978 77.9955 43.948 78.4553C44.1062 78.9124 44.049 79.4216 43.7763 79.9828L42.9623 81.6586C42.9125 81.7611 42.8933 81.8419 42.9047 81.9008C42.9241 81.9569 42.9743 82.0046 43.0553 82.044L43.2091 82.1187L42.8788 82.7987C42.8492 82.791 42.8034 82.7754 42.7414 82.752C42.6794 82.7285 42.616 82.7011 42.5513 82.6696C42.3678 82.5805 42.223 82.4735 42.1169 82.3485C42.0162 82.2263 41.9662 82.0819 41.967 81.9155C41.9704 81.7438 42.0285 81.5418 42.1412 81.3098L42.2106 81.3935C42.0757 81.5614 41.8999 81.6828 41.6834 81.7578C41.4723 81.8353 41.2352 81.8635 40.972 81.8424C40.7168 81.8185 40.4623 81.7449 40.2087 81.6217ZM40.6766 81.0086C40.9357 81.1344 41.1805 81.1933 41.4112 81.1853C41.6445 81.1719 41.8557 81.101 42.0448 80.9728C42.2338 80.8445 42.3834 80.667 42.4935 80.4403L42.6272 80.1651L41.2464 79.7945C40.9637 79.7172 40.7422 79.7063 40.5818 79.7618C40.4295 79.8146 40.314 79.9219 40.2353 80.0838C40.1462 80.2673 40.1388 80.4405 40.2131 80.6033C40.2954 80.7634 40.4499 80.8984 40.6766 81.0086ZM43.6033 83.1506L45.6954 78.8439L46.4806 79.2253L45.9546 80.3906L45.8769 80.2828C46.0618 80.0258 46.2636 79.8437 46.4825 79.7365C46.7013 79.6293 46.9275 79.5825 47.1611 79.5959C47.3973 79.6039 47.6288 79.663 47.8555 79.7731C48.1793 79.9304 48.411 80.133 48.5507 80.381C48.6985 80.6262 48.766 80.8991 48.7533 81.1998C48.7487 81.4977 48.6703 81.8032 48.5183 82.1162L47.1734 84.8848L46.3153 84.468L47.5343 81.9584C47.6576 81.7048 47.7341 81.4785 47.764 81.2796C47.794 81.0806 47.7692 80.9052 47.6896 80.7531C47.61 80.6011 47.4704 80.4765 47.2707 80.3795C46.9685 80.2327 46.6744 80.2133 46.3885 80.3212C46.1026 80.4292 45.8666 80.6747 45.6805 81.0579L44.4614 83.5675L43.6033 83.1506ZM47.5422 86.6349L48.5644 85.5605L48.1191 85.3442L48.6146 84.3242L49.6589 84.8315L49.2224 85.7301L48.036 86.8748L47.5422 86.6349ZM52.0782 87.2674L54.1703 82.9606L54.9555 83.3421L54.4295 84.5074L54.3518 84.3996C54.5367 84.1425 54.7385 83.9604 54.9574 83.8533C55.1762 83.7461 55.4024 83.6992 55.636 83.7127C55.8722 83.7207 56.1037 83.7798 56.3304 83.8899C56.6542 84.0472 56.8859 84.2498 57.0256 84.4978C57.1734 84.7429 57.2409 85.0159 57.2282 85.3166C57.2236 85.6145 57.1452 85.92 56.9932 86.233L55.6483 89.0016L54.7902 88.5848L56.0092 86.0752C56.1325 85.8215 56.209 85.5953 56.2389 85.3963C56.2689 85.1974 56.244 85.0219 56.1645 84.8699C56.0849 84.7178 55.9453 84.5933 55.7456 84.4963C55.4434 84.3495 55.1493 84.3301 54.8634 84.438C54.5775 84.5459 54.3415 84.7915 54.1554 85.1747L52.9363 87.6843L52.0782 87.2674ZM58.492 90.503C58.0818 90.3038 57.7675 90.0377 57.549 89.7048C57.3305 89.3719 57.2202 88.9948 57.2181 88.5735C57.2159 88.1522 57.325 87.7149 57.5452 87.2615C57.768 86.8028 58.0443 86.4468 58.3742 86.1934C58.704 85.9401 59.0673 85.7964 59.4641 85.7623C59.8635 85.7229 60.2683 85.8027 60.6784 86.002C61.0886 86.2012 61.4016 86.47 61.6175 86.8083C61.836 87.1413 61.9476 87.5157 61.9524 87.9316C61.9571 88.3474 61.8481 88.7847 61.6253 89.2435C61.405 89.6968 61.1287 90.0529 60.7962 90.3116C60.4638 90.5703 60.0992 90.7168 59.7024 90.7508C59.3056 90.7849 58.9022 90.7023 58.492 90.503ZM58.8538 89.7583C59.2208 89.9365 59.5683 89.9419 59.8965 89.7745C60.2273 89.6016 60.5067 89.2805 60.7348 88.8109C60.9628 88.3414 61.0413 87.9259 60.97 87.5644C60.9014 87.1976 60.6836 86.925 60.3166 86.7468C59.9551 86.5711 59.6062 86.5684 59.27 86.7386C58.9419 86.9061 58.6637 87.2246 58.4357 87.6941C58.2076 88.1636 58.1278 88.5818 58.1965 88.9487C58.2731 89.3128 58.4922 89.5826 58.8538 89.7583ZM61.4465 91.8181L63.5385 87.5114L64.3238 87.8928L63.8017 89.05L63.7406 88.9903C63.9887 88.6306 64.2451 88.4049 64.5097 88.3133C64.7797 88.2244 65.0685 88.2546 65.3762 88.404L65.789 88.6046L65.4155 89.3737L65.0026 89.1731C64.7867 89.0682 64.5889 89.0155 64.4091 89.0149C64.2293 89.0142 64.0662 89.0684 63.9199 89.1775C63.7789 89.2891 63.6521 89.4609 63.5394 89.693L62.3046 92.235L61.4465 91.8181ZM64.3399 93.2237L66.432 88.9169L67.2173 89.2984L66.7225 90.3787L66.641 90.2992C66.805 90.0853 66.9869 89.9236 67.1869 89.8139C67.3923 89.7069 67.6064 89.6508 67.829 89.6456C68.0517 89.6403 68.2683 89.6888 68.4788 89.7911C68.8457 89.9693 69.0942 90.2201 69.224 90.5433C69.3564 90.8611 69.3645 91.2152 69.2482 91.6057L69.1106 91.5388C69.2824 91.3088 69.4656 91.1376 69.6602 91.0253C69.8628 90.9103 70.0782 90.8515 70.3062 90.8489C70.5343 90.8463 70.7644 90.9013 70.9964 91.0141C71.2987 91.1609 71.5236 91.3502 71.6711 91.5819C71.8267 91.8109 71.8995 92.0731 71.8894 92.3684C71.8848 92.6663 71.7973 92.9906 71.6269 93.3415L70.282 96.1101L69.4239 95.6932L70.6665 93.1351C70.8474 92.7627 70.9163 92.4493 70.8731 92.1949C70.8299 91.9404 70.6707 91.7464 70.3955 91.6127C70.2174 91.5261 70.0386 91.496 69.8591 91.5222C69.6796 91.5484 69.5101 91.6295 69.3507 91.7655C69.1966 91.9041 69.0606 92.0949 68.9427 92.3377L67.7157 94.8635L66.8981 94.4663L68.125 91.9406C68.3033 91.5736 68.3789 91.2601 68.3517 91.0001C68.3326 90.7373 68.1773 90.5352 67.8859 90.3936C67.7024 90.3045 67.5209 90.273 67.3414 90.2992C67.1673 90.328 66.9992 90.4131 66.8372 90.5545C66.6777 90.6905 66.5403 90.8773 66.425 91.1147L65.1981 93.6405L64.3399 93.2237ZM72.5746 97.3438C72.1266 97.1262 71.8175 96.8493 71.6473 96.5132C71.4825 96.1796 71.4905 95.8266 71.6714 95.4543C71.8523 95.0819 72.1032 94.8469 72.4241 94.7493C72.753 94.6489 73.1745 94.6669 73.6886 94.8032L75.3077 95.2395C75.4702 94.9049 75.5126 94.6186 75.4347 94.3807C75.3595 94.1374 75.168 93.941 74.8604 93.7915C74.5852 93.6578 74.3391 93.615 74.1223 93.6631C73.9082 93.7059 73.7137 93.8315 73.539 94.0401L72.6841 93.5548C72.9748 93.1624 73.3396 92.9194 73.7787 92.8258C74.2231 92.7349 74.7016 92.8139 75.2143 93.063C75.7972 93.3461 76.1637 93.7176 76.3139 94.1774C76.4721 94.6345 76.4149 95.1436 76.1422 95.7049L75.3282 97.3807C75.2784 97.4832 75.2592 97.5639 75.2706 97.6228C75.29 97.679 75.3402 97.7267 75.4212 97.766L75.575 97.8407L75.2447 98.5208C75.2151 98.5131 75.1693 98.4975 75.1073 98.474C75.0453 98.4506 74.9819 98.4231 74.9171 98.3917C74.7337 98.3025 74.5889 98.1955 74.4828 98.0706C74.3821 97.9483 74.3321 97.804 74.3329 97.6376C74.3363 97.4658 74.3944 97.2639 74.5071 97.0318L74.5765 97.1156C74.4416 97.2835 74.2658 97.4049 74.0493 97.4799C73.8382 97.5574 73.6011 97.5856 73.3378 97.5645C73.0826 97.5406 72.8282 97.467 72.5746 97.3438ZM73.0425 96.7306C73.3016 96.8565 73.5464 96.9154 73.7771 96.9074C74.0104 96.894 74.2216 96.8231 74.4107 96.6948C74.5997 96.5665 74.7493 96.3891 74.8594 96.1624L74.9931 95.8871L73.6123 95.5166C73.3296 95.4393 73.1081 95.4284 72.9477 95.4839C72.7954 95.5366 72.6799 95.644 72.6012 95.8059C72.5121 95.9894 72.5047 96.1625 72.579 96.3254C72.6613 96.4854 72.8158 96.6205 73.0425 96.7306ZM76.8529 99.302C76.5723 99.1657 76.381 98.9827 76.2791 98.7531C76.1772 98.5235 76.2036 98.2495 76.3582 97.9311L78.7059 93.0981L79.564 93.5149L77.2557 98.2669C77.2085 98.3641 77.1974 98.4487 77.2224 98.5209C77.2527 98.5957 77.3165 98.6567 77.4136 98.7039L77.7536 98.869L77.4115 99.5733L76.8529 99.302ZM78.1354 99.925L80.2274 95.6182L81.0855 96.035L78.9935 100.342L78.1354 99.925ZM80.514 94.987L80.9309 94.1289L81.8214 94.5614L81.4045 95.4195L80.514 94.987ZM80.0609 100.86L80.4345 100.091L84.4095 98.5202L81.8918 97.2972L82.234 96.5929L85.7393 98.2956L85.3657 99.0647L81.3664 100.624L84.0541 101.93L83.712 102.634L80.0609 100.86ZM86.2568 103.99C85.8358 103.786 85.5161 103.517 85.2976 103.184C85.0845 102.854 84.9769 102.478 84.9747 102.057C84.978 101.638 85.0897 101.202 85.3099 100.749C85.5302 100.295 85.8025 99.9406 86.1269 99.6846C86.4594 99.4259 86.8213 99.2782 87.2127 99.2415C87.6067 99.1994 88.0088 99.278 88.4189 99.4772C88.8075 99.666 89.1056 99.9242 89.3133 100.252C89.5237 100.574 89.6272 100.945 89.6239 101.363C89.6261 101.785 89.5105 102.235 89.2772 102.716L89.171 102.934L86.0785 101.432C85.8956 101.864 85.8529 102.233 85.9504 102.54C86.0532 102.851 86.2773 103.09 86.6227 103.257C86.8764 103.381 87.1157 103.423 87.3407 103.386C87.5657 103.348 87.759 103.246 87.9208 103.077L88.7838 103.567C88.4764 103.911 88.0952 104.126 87.64 104.212C87.1928 104.295 86.7317 104.221 86.2568 103.99ZM86.3931 100.784L88.5789 101.846C88.7381 101.45 88.765 101.113 88.6599 100.835C88.5601 100.56 88.3618 100.35 88.065 100.206C87.7574 100.056 87.4565 100.03 87.1625 100.128C86.8764 100.222 86.62 100.441 86.3931 100.784ZM88.3514 106.458L89.3735 105.384L88.9283 105.168L89.4238 104.148L90.4681 104.655L90.0316 105.554L88.8452 106.698L88.3514 106.458ZM94.0464 107.774C93.5985 107.556 93.2894 107.28 93.1192 106.943C92.9543 106.61 92.9624 106.257 93.1432 105.884C93.3241 105.512 93.575 105.277 93.8959 105.179C94.2248 105.079 94.6464 105.097 95.1605 105.233L96.7796 105.67C96.9421 105.335 96.9844 105.049 96.9066 104.811C96.8313 104.568 96.6399 104.371 96.3323 104.222C96.057 104.088 95.811 104.045 95.5942 104.093C95.38 104.136 95.1856 104.262 95.0108 104.47L94.156 103.985C94.4466 103.593 94.8115 103.35 95.2505 103.256C95.6949 103.165 96.1735 103.244 96.6862 103.493C97.2691 103.776 97.6356 104.148 97.7858 104.608C97.944 105.065 97.8867 105.574 97.6141 106.135L96.8001 107.811C96.7503 107.913 96.7311 107.994 96.7425 108.053C96.7619 108.109 96.8121 108.157 96.893 108.196L97.0468 108.271L96.7165 108.951C96.6869 108.943 96.6411 108.928 96.5791 108.904C96.5171 108.881 96.4538 108.853 96.389 108.822C96.2055 108.733 96.0607 108.626 95.9546 108.501C95.8539 108.379 95.804 108.234 95.8048 108.068C95.8082 107.896 95.8662 107.694 95.979 107.462L96.0483 107.546C95.9134 107.714 95.7377 107.835 95.5212 107.91C95.3101 107.988 95.0729 108.016 94.8097 107.995C94.5545 107.971 94.3001 107.897 94.0464 107.774ZM94.5144 107.161C94.7734 107.287 95.0183 107.346 95.249 107.338C95.4823 107.324 95.6935 107.253 95.8825 107.125C96.0716 106.997 96.2212 106.819 96.3313 106.593L96.465 106.317L95.0841 105.947C94.8015 105.869 94.5799 105.859 94.4196 105.914C94.2672 105.967 94.1517 106.074 94.0731 106.236C93.9839 106.42 93.9765 106.593 94.0508 106.756C94.1332 106.916 94.2877 107.051 94.5144 107.161ZM97.4411 109.303L99.5331 104.996L100.318 105.378L99.7924 106.543L99.7146 106.435C99.8995 106.178 100.101 105.996 100.32 105.889C100.539 105.782 100.765 105.735 100.999 105.748C101.235 105.756 101.467 105.815 101.693 105.925C102.017 106.083 102.249 106.285 102.388 106.533C102.536 106.778 102.604 107.051 102.591 107.352C102.586 107.65 102.508 107.955 102.356 108.268L101.011 111.037L100.153 110.62L101.372 108.111C101.495 107.857 101.572 107.631 101.602 107.432C101.632 107.233 101.607 107.057 101.527 106.905C101.448 106.753 101.308 106.629 101.108 106.532C100.806 106.385 100.512 106.366 100.226 106.473C99.9404 106.581 99.7044 106.827 99.5182 107.21L98.2992 109.72L97.4411 109.303ZM103.612 112.421C103.245 112.242 102.968 111.995 102.782 111.677C102.602 111.363 102.52 111.003 102.536 110.597C102.561 110.189 102.685 109.756 102.908 109.297C103.131 108.838 103.396 108.477 103.705 108.213C104.016 107.944 104.35 107.783 104.709 107.731C105.068 107.678 105.431 107.741 105.798 107.919C106.095 108.064 106.33 108.254 106.501 108.491C106.673 108.728 106.765 108.986 106.776 109.265L107.771 107.217L108.629 107.633L105.837 113.381L105.035 112.992L105.326 112.332C105.094 112.507 104.824 112.603 104.516 112.62C104.216 112.634 103.914 112.567 103.612 112.421ZM104.2 111.786C104.433 111.899 104.658 111.935 104.878 111.895C105.098 111.855 105.306 111.742 105.502 111.558C105.698 111.373 105.873 111.124 106.025 110.811C106.182 110.487 106.271 110.194 106.292 109.93C106.316 109.662 106.275 109.432 106.168 109.24C106.064 109.042 105.895 108.887 105.663 108.774C105.318 108.607 104.977 108.608 104.641 108.778C104.307 108.943 104.027 109.26 103.799 109.73C103.573 110.194 103.497 110.611 103.571 110.98C103.645 111.349 103.855 111.618 104.2 111.786ZM108.433 116.143L111.115 110.622L111.924 111.015L111.5 111.95L111.427 111.854C111.69 111.588 111.984 111.435 112.311 111.393C112.641 111.347 112.967 111.402 113.291 111.559C113.712 111.764 114.006 112.037 114.174 112.378C114.35 112.717 114.42 113.088 114.384 113.491C114.354 113.896 114.24 114.302 114.044 114.706C113.847 115.111 113.599 115.451 113.299 115.725C113.004 116.002 112.668 116.179 112.29 116.256C111.921 116.33 111.526 116.265 111.105 116.06C110.889 115.955 110.705 115.819 110.553 115.652C110.401 115.485 110.29 115.301 110.22 115.1C110.159 114.897 110.147 114.688 110.185 114.473L110.329 114.423L109.291 116.56L108.433 116.143ZM111.313 115.241C111.658 115.409 111.992 115.407 112.315 115.237C112.643 115.07 112.923 114.749 113.153 114.274C113.384 113.799 113.464 113.381 113.392 113.019C113.327 112.66 113.121 112.397 112.776 112.229C112.549 112.119 112.324 112.08 112.102 112.112C111.882 112.139 111.672 112.243 111.47 112.425C111.268 112.607 111.087 112.863 110.927 113.192C110.767 113.522 110.675 113.82 110.652 114.089C110.633 114.36 110.68 114.593 110.792 114.788C110.913 114.98 111.086 115.131 111.313 115.241ZM113.869 117.283L115.961 112.976L116.746 113.358L116.224 114.515L116.163 114.455C116.411 114.095 116.668 113.87 116.932 113.778C117.202 113.689 117.491 113.719 117.799 113.869L118.212 114.069L117.838 114.839L117.425 114.638C117.209 114.533 117.012 114.48 116.832 114.48C116.652 114.479 116.489 114.533 116.342 114.642C116.202 114.754 116.075 114.926 115.962 115.158L114.727 117.7L113.869 117.283ZM118.457 119.632C118.036 119.427 117.716 119.158 117.497 118.825C117.284 118.495 117.177 118.119 117.175 117.698C117.178 117.279 117.29 116.843 117.51 116.39C117.73 115.937 118.002 115.582 118.327 115.326C118.659 115.067 119.021 114.92 119.413 114.883C119.807 114.841 120.209 114.919 120.619 115.119C121.007 115.307 121.306 115.566 121.513 115.893C121.724 116.216 121.827 116.586 121.824 117.005C121.826 117.426 121.71 117.877 121.477 118.357L121.371 118.576L118.278 117.074C118.096 117.505 118.053 117.874 118.15 118.182C118.253 118.492 118.477 118.731 118.823 118.899C119.076 119.022 119.316 119.065 119.541 119.027C119.766 118.99 119.959 118.887 120.121 118.719L120.984 119.208C120.676 119.552 120.295 119.767 119.84 119.853C119.393 119.936 118.932 119.862 118.457 119.632ZM118.593 116.426L120.779 117.488C120.938 117.091 120.965 116.754 120.86 116.476C120.76 116.201 120.562 115.991 120.265 115.847C119.957 115.698 119.656 115.672 119.362 115.769C119.076 115.864 118.82 116.083 118.593 116.426ZM120.726 122.115L123.408 116.594L124.218 116.987L123.794 117.922L123.72 117.826C123.983 117.56 124.278 117.406 124.605 117.365C124.934 117.318 125.261 117.374 125.585 117.531C126.006 117.735 126.3 118.008 126.467 118.35C126.643 118.689 126.713 119.06 126.677 119.462C126.647 119.868 126.534 120.273 126.337 120.678C126.141 121.083 125.892 121.422 125.592 121.697C125.297 121.974 124.961 122.151 124.584 122.228C124.214 122.302 123.819 122.236 123.398 122.032C123.182 121.927 122.998 121.791 122.846 121.624C122.694 121.456 122.583 121.272 122.514 121.072C122.452 120.869 122.441 120.66 122.478 120.444L122.623 120.394L121.584 122.532L120.726 122.115ZM123.606 121.212C123.952 121.38 124.286 121.379 124.608 121.209C124.937 121.042 125.216 120.72 125.447 120.245C125.677 119.77 125.757 119.352 125.686 118.991C125.62 118.632 125.414 118.369 125.069 118.201C124.842 118.091 124.618 118.052 124.395 118.084C124.176 118.111 123.965 118.215 123.763 118.397C123.561 118.579 123.38 118.835 123.22 119.164C123.06 119.493 122.969 119.792 122.945 120.061C122.927 120.332 122.973 120.565 123.086 120.759C123.206 120.951 123.379 121.102 123.606 121.212ZM127.408 123.98C126.96 123.762 126.651 123.485 126.481 123.149C126.316 122.816 126.324 122.463 126.505 122.09C126.686 121.718 126.937 121.483 127.258 121.385C127.587 121.285 128.008 121.303 128.522 121.439L130.142 121.876C130.304 121.541 130.346 121.255 130.269 121.017C130.193 120.773 130.002 120.577 129.694 120.428C129.419 120.294 129.173 120.251 128.956 120.299C128.742 120.342 128.548 120.468 128.373 120.676L127.518 120.191C127.809 119.799 128.174 119.556 128.613 119.462C129.057 119.371 129.535 119.45 130.048 119.699C130.631 119.982 130.998 120.354 131.148 120.814C131.306 121.271 131.249 121.78 130.976 122.341L130.162 124.017C130.112 124.119 130.093 124.2 130.104 124.259C130.124 124.315 130.174 124.363 130.255 124.402L130.409 124.477L130.079 125.157C130.049 125.149 130.003 125.134 129.941 125.11C129.879 125.087 129.816 125.059 129.751 125.028C129.568 124.939 129.423 124.832 129.317 124.707C129.216 124.584 129.166 124.44 129.167 124.274C129.17 124.102 129.228 123.9 129.341 123.668L129.41 123.752C129.275 123.92 129.1 124.041 128.883 124.116C128.672 124.194 128.435 124.222 128.172 124.201C127.917 124.177 127.662 124.103 127.408 123.98ZM127.876 123.367C128.135 123.493 128.38 123.552 128.611 123.544C128.844 123.53 129.055 123.459 129.245 123.331C129.434 123.203 129.583 123.025 129.693 122.799L129.827 122.523L128.446 122.153C128.163 122.075 127.942 122.065 127.782 122.12C127.629 122.173 127.514 122.28 127.435 122.442C127.346 122.625 127.339 122.799 127.413 122.962C127.495 123.122 127.65 123.257 127.876 123.367ZM130.803 125.509L132.895 121.202L133.68 121.584L133.158 122.741L133.097 122.681C133.345 122.321 133.602 122.096 133.866 122.004C134.136 121.915 134.425 121.945 134.733 122.095L135.146 122.295L134.772 123.064L134.359 122.864C134.143 122.759 133.945 122.706 133.766 122.706C133.586 122.705 133.423 122.759 133.276 122.868C133.136 122.98 133.009 123.152 132.896 123.384L131.661 125.926L130.803 125.509ZM135.391 127.857C134.97 127.653 134.65 127.384 134.431 127.051C134.218 126.721 134.111 126.345 134.109 125.924C134.112 125.505 134.224 125.069 134.444 124.616C134.664 124.163 134.936 123.808 135.261 123.552C135.593 123.293 135.955 123.145 136.347 123.109C136.741 123.067 137.143 123.145 137.553 123.345C137.941 123.533 138.24 123.791 138.447 124.119C138.658 124.441 138.761 124.812 138.758 125.231C138.76 125.652 138.644 126.103 138.411 126.583L138.305 126.802L135.212 125.299C135.03 125.731 134.987 126.1 135.084 126.408C135.187 126.718 135.411 126.957 135.757 127.125C136.01 127.248 136.25 127.291 136.475 127.253C136.7 127.216 136.893 127.113 137.055 126.945L137.918 127.434C137.61 127.778 137.229 127.993 136.774 128.079C136.327 128.162 135.866 128.088 135.391 127.857ZM135.527 124.652L137.713 125.714C137.872 125.317 137.899 124.98 137.794 124.702C137.694 124.427 137.496 124.217 137.199 124.073C136.891 123.924 136.59 123.898 136.296 123.995C136.01 124.089 135.754 124.308 135.527 124.652ZM139.951 131.453L140.293 130.749L140.819 131.005C140.965 131.075 141.083 131.106 141.174 131.097C141.266 131.088 141.355 131.041 141.442 130.957L141.753 130.668L141.486 130.538L141.961 125.606L142.867 126.046L142.406 130.004L145.175 127.167L146.089 127.611L142.037 131.586C141.83 131.793 141.613 131.911 141.385 131.94C141.163 131.972 140.901 131.915 140.598 131.768L139.951 131.453ZM146.277 133.145C145.867 132.946 145.552 132.68 145.334 132.347C145.115 132.014 145.005 131.637 145.003 131.216C145.001 130.795 145.11 130.357 145.33 129.904C145.553 129.445 145.829 129.089 146.159 128.836C146.489 128.582 146.852 128.439 147.249 128.405C147.648 128.365 148.053 128.445 148.463 128.644C148.873 128.844 149.186 129.112 149.402 129.451C149.621 129.784 149.732 130.158 149.737 130.574C149.742 130.99 149.633 131.427 149.41 131.886C149.19 132.339 148.913 132.695 148.581 132.954C148.249 133.213 147.884 133.359 147.487 133.393C147.09 133.427 146.687 133.345 146.277 133.145ZM146.639 132.401C147.006 132.579 147.353 132.584 147.681 132.417C148.012 132.244 148.291 131.923 148.52 131.453C148.748 130.984 148.826 130.568 148.755 130.207C148.686 129.84 148.468 129.567 148.101 129.389C147.74 129.214 147.391 129.211 147.055 129.381C146.727 129.548 146.449 129.867 146.22 130.336C145.992 130.806 145.913 131.224 145.981 131.591C146.058 131.955 146.277 132.225 146.639 132.401ZM150.601 135.246C150.169 135.036 149.893 134.725 149.773 134.313C149.661 133.899 149.729 133.435 149.978 132.922L151.323 130.154L152.181 130.571L150.943 133.121C150.754 133.509 150.682 133.828 150.728 134.077C150.774 134.326 150.935 134.517 151.21 134.651C151.523 134.803 151.814 134.821 152.084 134.706C152.362 134.587 152.59 134.344 152.768 133.977L153.995 131.451L154.853 131.868L152.761 136.175L151.959 135.786L152.49 134.653L152.588 134.76C152.329 135.101 152.028 135.315 151.685 135.402C151.345 135.484 150.984 135.432 150.601 135.246ZM153.975 136.765L156.067 132.458L156.852 132.839L156.33 133.997L156.269 133.937C156.517 133.577 156.773 133.351 157.038 133.26C157.308 133.171 157.597 133.201 157.904 133.351L158.317 133.551L157.944 134.32L157.531 134.12C157.315 134.015 157.117 133.962 156.937 133.961C156.757 133.961 156.594 134.015 156.448 134.124C156.307 134.236 156.18 134.407 156.068 134.64L154.833 137.182L153.975 136.765ZM22.7034 86.4592C22.3364 86.2809 22.0598 86.0332 21.8737 85.716C21.693 85.4014 21.6111 85.0414 21.6279 84.636C21.6527 84.2279 21.7766 83.7944 21.9994 83.3357C22.2222 82.8769 22.4878 82.5157 22.7961 82.2518C23.1069 81.9826 23.4419 81.8218 23.8008 81.7694C24.1598 81.717 24.5228 81.7799 24.8898 81.9581C25.1866 82.1023 25.4209 82.2929 25.5927 82.5297C25.7645 82.7666 25.856 83.0245 25.8672 83.3034L26.8622 81.2553L27.7203 81.6721L24.9282 87.4199L24.1268 87.0306L24.4171 86.3711C24.1856 86.5455 23.9157 86.6412 23.6073 86.6582C23.3069 86.6723 23.0056 86.606 22.7034 86.4592ZM23.2918 85.8245C23.5239 85.9373 23.7497 85.9736 23.9693 85.9335C24.1889 85.8934 24.3969 85.781 24.5934 85.5963C24.7898 85.4116 24.9641 85.1627 25.1161 84.8497C25.2734 84.5258 25.3627 84.2323 25.3838 83.9691C25.4076 83.7005 25.366 83.4702 25.2592 83.2782C25.1549 83.0808 24.9868 82.9258 24.7547 82.813C24.4093 82.6453 24.0685 82.6465 23.7323 82.8167C23.3988 82.9815 23.118 83.2987 22.8899 83.7682C22.6644 84.2324 22.5887 84.6492 22.6627 85.0187C22.7367 85.3881 22.9464 85.6568 23.2918 85.8245ZM27.2257 88.656C26.7778 88.4384 26.4687 88.1615 26.2985 87.8254C26.1337 87.4918 26.1417 87.1388 26.3226 86.7665C26.5035 86.3941 26.7544 86.1591 27.0753 86.0615C27.4042 85.9611 27.8257 85.9791 28.3398 86.1154L29.9589 86.5517C30.1214 86.2171 30.1638 85.9308 30.0859 85.6929C30.0107 85.4496 29.8192 85.2532 29.5116 85.1037C29.2364 84.97 28.9903 84.9272 28.7735 84.9753C28.5593 85.018 28.3649 85.1437 28.1902 85.3523L27.3353 84.867C27.626 84.4746 27.9908 84.2316 28.4298 84.138C28.8743 84.0471 29.3528 84.1261 29.8655 84.3752C30.4484 84.6583 30.8149 85.0298 30.9651 85.4896C31.1233 85.9467 31.0661 86.4558 30.7934 87.0171L29.9794 88.6929C29.9296 88.7954 29.9104 88.8761 29.9218 88.935C29.9412 88.9912 29.9914 89.0389 30.0724 89.0782L30.2262 89.1529L29.8959 89.833C29.8662 89.8253 29.8204 89.8097 29.7585 89.7862C29.6965 89.7628 29.6331 89.7353 29.5683 89.7039C29.3848 89.6147 29.24 89.5077 29.134 89.3828C29.0333 89.2605 28.9833 89.1162 28.9841 88.9498C28.9875 88.778 29.0456 88.5761 29.1583 88.344L29.2277 88.4278C29.0927 88.5957 28.917 88.7171 28.7005 88.7921C28.4894 88.8696 28.2523 88.8978 27.989 88.8767C27.7338 88.8528 27.4794 88.7792 27.2257 88.656ZM27.6937 88.0428C27.9527 88.1687 28.1976 88.2276 28.4283 88.2196C28.6616 88.2062 28.8728 88.1353 29.0618 88.007C29.2509 87.8787 29.4005 87.7013 29.5106 87.4746L29.6443 87.1993L28.2634 86.8287C27.9808 86.7515 27.7593 86.7406 27.5989 86.7961C27.4466 86.8488 27.3311 86.9562 27.2524 87.1181C27.1633 87.3016 27.1559 87.4747 27.2302 87.6376C27.3125 87.7976 27.467 87.9327 27.6937 88.0428ZM32.0505 90.8796C31.6403 90.6804 31.384 90.4391 31.2814 90.1558C31.1789 89.8726 31.2246 89.5312 31.4186 89.1319L33.436 84.9789L34.2941 85.3957L32.3082 89.4839C32.2112 89.6836 32.1875 89.8422 32.2372 89.9597C32.2868 90.0772 32.4007 90.1792 32.5788 90.2657L33.1941 90.5646L32.8519 91.2689L32.0505 90.8796ZM31.9466 86.3766L32.2887 85.6723L34.944 86.9621L34.6019 87.6665L31.9466 86.3766ZM34.8073 92.3388C34.3594 92.1212 34.0503 91.8443 33.88 91.5082C33.7152 91.1746 33.7232 90.8217 33.9041 90.4493C34.085 90.0769 34.3359 89.8419 34.6568 89.7443C34.9857 89.6439 35.4072 89.6619 35.9213 89.7982L37.5404 90.2345C37.703 89.8999 37.7453 89.6136 37.6675 89.3757C37.5922 89.1324 37.4008 88.936 37.0932 88.7866C36.8179 88.6529 36.5719 88.6101 36.3551 88.6582C36.1409 88.7009 35.9464 88.8265 35.7717 89.0352L34.9168 88.5499C35.2075 88.1574 35.5724 87.9144 36.0114 87.8208C36.4558 87.7299 36.9344 87.8089 37.4471 88.058C38.03 88.3411 38.3965 88.7126 38.5467 89.1724C38.7048 89.6295 38.6476 90.1387 38.375 90.6999L37.561 92.3757C37.5111 92.4782 37.4919 92.559 37.5033 92.6179C37.5228 92.674 37.573 92.7217 37.6539 92.7611L37.8077 92.8358L37.4774 93.5158C37.4478 93.5081 37.402 93.4925 37.34 93.4691C37.278 93.4456 37.2147 93.4182 37.1499 93.3867C36.9664 93.2976 36.8216 93.1905 36.7155 93.0656C36.6148 92.9434 36.5649 92.799 36.5656 92.6326C36.569 92.4609 36.6271 92.2589 36.7398 92.0269L36.8092 92.1106C36.6743 92.2785 36.4986 92.3999 36.2821 92.4749C36.071 92.5524 35.8338 92.5806 35.5706 92.5595C35.3154 92.5356 35.061 92.462 34.8073 92.3388ZM35.2752 91.7257C35.5343 91.8515 35.7792 91.9104 36.0099 91.9024C36.2432 91.889 36.4543 91.8181 36.6434 91.6899C36.8325 91.5616 36.982 91.3841 37.0921 91.1574L37.2259 90.8822L35.845 90.5116C35.5623 90.4343 35.3408 90.4234 35.1805 90.4789C35.0281 90.5317 34.9126 90.639 34.834 90.8009C34.7448 90.9844 34.7374 91.1576 34.8117 91.3204C34.8941 91.4805 35.0486 91.6155 35.2752 91.7257ZM40.8944 92.7142L41.2562 91.9695L47.9349 95.2137L47.5731 95.9585L40.8944 92.7142ZM49.9521 99.5755L52.1779 94.9935C52.3509 94.6373 52.5884 94.4025 52.8903 94.289C53.1923 94.1755 53.5564 94.2223 53.9828 94.4294L54.7437 94.7991L54.4016 95.5034L53.754 95.1888C53.5867 95.1075 53.4403 95.0931 53.3147 95.1455C53.1918 95.1925 53.0911 95.297 53.0124 95.4589L50.8103 99.9924L49.9521 99.5755ZM51.0794 95.7306L51.4176 95.0344L53.9515 96.2653L53.6133 96.9615L51.0794 95.7306ZM53.7651 101.548C53.3172 101.33 53.0081 101.053 52.8379 100.717C52.6731 100.384 52.6811 100.031 52.862 99.6583C53.0429 99.2859 53.2938 99.0509 53.6147 98.9533C53.9436 98.8529 54.3651 98.8709 54.8792 99.0072L56.4983 99.4435C56.6608 99.1089 56.7032 98.8226 56.6253 98.5847C56.5501 98.3414 56.3586 98.145 56.051 97.9955C55.7758 97.8618 55.5297 97.819 55.3129 97.8671C55.0987 97.9098 54.9043 98.0355 54.7296 98.2441L53.8747 97.7588C54.1654 97.3664 54.5302 97.1234 54.9692 97.0298C55.4137 96.9389 55.8922 97.0179 56.4049 97.267C56.9878 97.5501 57.3543 97.9216 57.5045 98.3814C57.6627 98.8385 57.6055 99.3476 57.3328 99.9089L56.5188 101.585C56.469 101.687 56.4498 101.768 56.4612 101.827C56.4806 101.883 56.5308 101.931 56.6118 101.97L56.7656 102.045L56.4353 102.725C56.4056 102.717 56.3598 102.701 56.2979 102.678C56.2359 102.655 56.1725 102.627 56.1077 102.596C55.9242 102.507 55.7794 102.4 55.6734 102.275C55.5727 102.152 55.5227 102.008 55.5235 101.842C55.5269 101.67 55.585 101.468 55.6977 101.236L55.7671 101.32C55.6321 101.487 55.4564 101.609 55.2399 101.684C55.0288 101.761 54.7917 101.79 54.5284 101.768C54.2732 101.745 54.0188 101.671 53.7651 101.548ZM54.2331 100.935C54.4921 101.06 54.737 101.119 54.9677 101.111C55.201 101.098 55.4122 101.027 55.6012 100.899C55.7903 100.771 55.9399 100.593 56.05 100.366L56.1837 100.091L54.8028 99.7205C54.5202 99.6433 54.2987 99.6324 54.1383 99.6879C53.986 99.7406 53.8705 99.848 53.7918 100.01C53.7027 100.193 53.6953 100.367 53.7696 100.529C53.8519 100.689 54.0064 100.825 54.2331 100.935ZM58.7405 103.965C58.3358 103.768 58.0232 103.539 57.8029 103.279C57.5879 103.021 57.4573 102.748 57.4111 102.458C57.3674 102.164 57.4043 101.868 57.5217 101.572L58.4237 101.96C58.3516 102.218 58.3623 102.457 58.4561 102.676C58.5498 102.895 58.7613 103.084 59.0905 103.244C59.3604 103.375 59.5945 103.436 59.793 103.425C59.9914 103.415 60.1366 103.315 60.2283 103.126C60.2781 103.024 60.2931 102.924 60.2732 102.828C60.2613 102.729 60.1943 102.62 60.0722 102.5C59.9527 102.376 59.7617 102.219 59.4993 102.032C59.1123 101.744 58.8235 101.487 58.6331 101.261C58.4427 101.035 58.3368 100.814 58.3155 100.596C58.2943 100.379 58.3413 100.152 58.4567 99.9145C58.648 99.5206 58.9497 99.2702 59.3618 99.1635C59.7792 99.0595 60.2659 99.1424 60.8217 99.4125C61.1941 99.5934 61.4757 99.8102 61.6664 100.063C61.8598 100.31 61.9742 100.576 62.0097 100.86C62.0531 101.141 62.0295 101.423 61.9388 101.706L61.0328 101.326C61.0793 101.162 61.0882 101.006 61.0597 100.859C61.0392 100.709 60.9786 100.573 60.8779 100.45C60.7798 100.323 60.6418 100.216 60.4637 100.129C60.1884 99.9953 59.9571 99.9497 59.7698 99.9921C59.5824 100.034 59.4468 100.142 59.3629 100.315C59.3 100.444 59.2785 100.564 59.2986 100.674C59.324 100.786 59.3938 100.903 59.5079 101.026C59.6246 101.142 59.7898 101.276 60.0035 101.426C60.4148 101.72 60.7197 101.984 60.9183 102.221C61.1195 102.452 61.2321 102.674 61.256 102.885C61.2799 103.097 61.2355 103.319 61.1227 103.551C60.9917 103.821 60.8047 104.013 60.5618 104.129C60.3189 104.244 60.0404 104.289 59.7261 104.263C59.4145 104.232 59.0859 104.132 58.7405 103.965ZM62.9143 105.872C62.5041 105.673 62.2478 105.432 62.1453 105.148C62.0427 104.865 62.0885 104.524 62.2825 104.124L64.2998 99.9713L65.1579 100.388L63.172 104.476C63.075 104.676 63.0514 104.835 63.101 104.952C63.1507 105.07 63.2645 105.172 63.4426 105.258L64.0579 105.557L63.7158 106.261L62.9143 105.872ZM62.8104 101.369L63.1525 100.665L65.8078 101.955L65.4657 102.659L62.8104 101.369ZM66.1904 107.583C65.7694 107.379 65.4497 107.11 65.2312 106.777C65.0181 106.447 64.9105 106.071 64.9083 105.65C64.9116 105.231 65.0233 104.795 65.2435 104.342C65.4637 103.889 65.7361 103.534 66.0605 103.278C66.393 103.019 66.7549 102.872 67.1463 102.835C67.5403 102.793 67.9423 102.871 68.3525 103.071C68.7411 103.259 69.0392 103.518 69.2469 103.845C69.4572 104.168 69.5608 104.538 69.5575 104.957C69.5597 105.378 69.4441 105.829 69.2107 106.309L69.1046 106.528L66.0121 105.025C65.8292 105.457 65.7865 105.826 65.8839 106.134C65.9868 106.444 66.2109 106.683 66.5563 106.851C66.81 106.974 67.0493 107.017 67.2743 106.979C67.4992 106.942 67.6926 106.839 67.8544 106.671L68.7174 107.16C68.41 107.504 68.0287 107.719 67.5735 107.805C67.1264 107.888 66.6653 107.814 66.1904 107.583ZM66.3267 104.378L68.5125 105.44C68.6716 105.043 68.6986 104.706 68.5935 104.428C68.4937 104.153 68.2954 103.943 67.9986 103.799C67.691 103.65 67.3901 103.624 67.0961 103.721C66.81 103.816 66.5536 104.034 66.3267 104.378ZM69.0499 108.852L71.142 104.546L71.9273 104.927L71.4052 106.084L71.3441 106.025C71.5922 105.665 71.8486 105.439 72.1132 105.348C72.3832 105.259 72.672 105.289 72.9797 105.438L73.3925 105.639L73.019 106.408L72.6061 106.207C72.3902 106.103 72.1924 106.05 72.0126 106.049C71.8328 106.049 71.6697 106.103 71.5234 106.212C71.3824 106.323 71.2556 106.495 71.1429 106.727L69.9081 109.269L69.0499 108.852ZM75.3635 112.039C74.9155 111.822 74.6065 111.545 74.4362 111.209C74.2714 110.875 74.2794 110.522 74.4603 110.15C74.6412 109.777 74.8921 109.542 75.213 109.445C75.5419 109.345 75.9634 109.363 76.4775 109.499L78.0966 109.935C78.2592 109.601 78.3015 109.314 78.2237 109.076C78.1484 108.833 77.957 108.637 77.6493 108.487C77.3741 108.353 77.1281 108.311 76.9113 108.359C76.6971 108.401 76.5026 108.527 76.3279 108.736L75.473 108.25C75.7637 107.858 76.1286 107.615 76.5676 107.521C77.012 107.43 77.4906 107.51 78.0033 107.759C78.5861 108.042 78.9527 108.413 79.1028 108.873C79.261 109.33 79.2038 109.839 78.9312 110.401L78.1171 112.076C78.0673 112.179 78.0481 112.26 78.0595 112.318C78.079 112.375 78.1292 112.422 78.2101 112.462L78.3639 112.536L78.0336 113.216C78.004 113.209 77.9582 113.193 77.8962 113.17C77.8342 113.146 77.7708 113.119 77.7061 113.087C77.5226 112.998 77.3778 112.891 77.2717 112.766C77.171 112.644 77.1211 112.5 77.1218 112.333C77.1252 112.161 77.1833 111.96 77.296 111.727L77.3654 111.811C77.2305 111.979 77.0548 112.101 76.8383 112.175C76.6272 112.253 76.39 112.281 76.1268 112.26C75.8716 112.236 75.6171 112.163 75.3635 112.039ZM75.8314 111.426C76.0905 111.552 76.3354 111.611 76.566 111.603C76.7994 111.59 77.0105 111.519 77.1996 111.39C77.3886 111.262 77.5382 111.085 77.6483 110.858L77.782 110.583L76.4012 110.212C76.1185 110.135 75.897 110.124 75.7366 110.18C75.5843 110.232 75.4688 110.34 75.3901 110.501C75.301 110.685 75.2936 110.858 75.3679 111.021C75.4503 111.181 75.6048 111.316 75.8314 111.426ZM78.7581 113.568L80.8502 109.262L81.6355 109.643L81.1094 110.808L81.0317 110.701C81.2166 110.443 81.4185 110.261 81.6373 110.154C81.8561 110.047 82.0823 110 82.3159 110.014C82.5522 110.022 82.7836 110.081 83.0103 110.191C83.3341 110.348 83.5659 110.551 83.7056 110.799C83.8533 111.044 83.9208 111.317 83.9082 111.617C83.9035 111.915 83.8252 112.221 83.6731 112.534L82.3282 115.303L81.4701 114.886L82.6892 112.376C82.8124 112.122 82.8889 111.896 82.9189 111.697C82.9488 111.498 82.924 111.323 82.8444 111.171C82.7648 111.019 82.6252 110.894 82.4255 110.797C82.1233 110.65 81.8292 110.631 81.5434 110.739C81.2575 110.847 81.0214 111.092 80.8353 111.476L79.6163 113.985L78.7581 113.568ZM84.9291 116.686C84.5621 116.508 84.2855 116.26 84.0994 115.943C83.9187 115.628 83.8367 115.268 83.8536 114.863C83.8784 114.455 84.0023 114.021 84.2251 113.562C84.4479 113.104 84.7135 112.742 85.0217 112.479C85.3326 112.209 85.6675 112.049 86.0265 111.996C86.3855 111.944 86.7485 112.007 87.1155 112.185C87.4123 112.329 87.6466 112.52 87.8184 112.757C87.9902 112.993 88.0817 113.251 88.0929 113.53L89.0878 111.482L89.9459 111.899L87.1539 117.647L86.3525 117.257L86.6428 116.598C86.4113 116.772 86.1414 116.868 85.833 116.885C85.5326 116.899 85.2313 116.833 84.9291 116.686ZM85.5175 116.051C85.7496 116.164 85.9754 116.2 86.195 116.16C86.4146 116.12 86.6226 116.008 86.8191 115.823C87.0155 115.638 87.1898 115.389 87.3418 115.076C87.4991 114.753 87.5883 114.459 87.6095 114.196C87.6332 113.927 87.5917 113.697 87.4848 113.505C87.3806 113.308 87.2124 113.153 86.9804 113.04C86.635 112.872 86.2942 112.873 85.958 113.043C85.6245 113.208 85.3437 113.525 85.1156 113.995C84.8901 114.459 84.8144 114.876 84.8884 115.245C84.9624 115.615 85.1721 115.884 85.5175 116.051ZM91.9523 120.098C91.5476 119.901 91.235 119.672 91.0147 119.412C90.7997 119.154 90.6691 118.881 90.6229 118.591C90.5792 118.297 90.6161 118.001 90.7335 117.705L91.6355 118.093C91.5634 118.351 91.5741 118.59 91.6679 118.809C91.7616 119.028 91.9731 119.217 92.3023 119.377C92.5722 119.508 92.8063 119.569 93.0048 119.558C93.2032 119.548 93.3484 119.448 93.4401 119.259C93.4899 119.157 93.5049 119.057 93.485 118.961C93.4731 118.862 93.4061 118.753 93.284 118.633C93.1645 118.509 92.9735 118.352 92.7111 118.165C92.3241 117.877 92.0353 117.62 91.8449 117.394C91.6545 117.168 91.5486 116.947 91.5273 116.729C91.5061 116.512 91.5531 116.285 91.6685 116.048C91.8598 115.654 92.1615 115.403 92.5736 115.297C92.991 115.192 93.4777 115.275 94.0335 115.545C94.4059 115.726 94.6875 115.943 94.8782 116.196C95.0716 116.443 95.186 116.709 95.2215 116.993C95.2649 117.274 95.2413 117.556 95.1506 117.839L94.2446 117.459C94.2911 117.295 94.3 117.139 94.2715 116.992C94.251 116.842 94.1904 116.706 94.0897 116.583C93.9916 116.456 93.8536 116.349 93.6755 116.262C93.4002 116.128 93.1689 116.083 92.9816 116.125C92.7942 116.167 92.6586 116.275 92.5747 116.448C92.5118 116.577 92.4903 116.697 92.5104 116.807C92.5358 116.919 92.6056 117.036 92.7197 117.159C92.8364 117.275 93.0016 117.409 93.2153 117.559C93.6266 117.853 93.9315 118.117 94.1301 118.354C94.3313 118.585 94.4439 118.807 94.4678 119.018C94.4917 119.23 94.4473 119.452 94.3345 119.684C94.2035 119.954 94.0165 120.146 93.7736 120.262C93.5307 120.377 93.2522 120.422 92.9379 120.396C92.6263 120.365 92.2977 120.265 91.9523 120.098ZM94.6328 121.28L96.7248 116.973L97.5101 117.354L97.0153 118.435L96.9339 118.355C97.0978 118.141 97.2798 117.979 97.4798 117.87C97.6852 117.763 97.8992 117.707 98.1219 117.701C98.3445 117.696 98.5611 117.745 98.7716 117.847C99.1386 118.025 99.387 118.276 99.5168 118.599C99.6493 118.917 99.6573 119.271 99.5411 119.662L99.4034 119.595C99.5752 119.365 99.7584 119.194 99.953 119.081C100.156 118.966 100.371 118.907 100.599 118.905C100.827 118.902 101.057 118.957 101.289 119.07C101.591 119.217 101.816 119.406 101.964 119.638C102.12 119.867 102.192 120.129 102.182 120.424C102.178 120.722 102.09 121.047 101.92 121.397L100.575 124.166L99.7167 123.749L100.959 121.191C101.14 120.819 101.209 120.505 101.166 120.251C101.123 119.996 100.964 119.802 100.688 119.669C100.51 119.582 100.331 119.552 100.152 119.578C99.9724 119.604 99.803 119.685 99.6435 119.821C99.4895 119.96 99.3534 120.151 99.2355 120.394L98.0086 122.919L97.1909 122.522L98.4178 119.996C98.5961 119.629 98.6717 119.316 98.6445 119.056C98.6254 118.793 98.4702 118.591 98.1787 118.45C97.9952 118.36 97.8137 118.329 97.6342 118.355C97.4602 118.384 97.2921 118.469 97.13 118.61C96.9705 118.746 96.8331 118.933 96.7178 119.171L95.4909 121.696L94.6328 121.28ZM102.867 125.4C102.419 125.182 102.11 124.905 101.94 124.569C101.775 124.236 101.783 123.883 101.964 123.51C102.145 123.138 102.396 122.903 102.717 122.805C103.046 122.705 103.467 122.723 103.981 122.859L105.601 123.295C105.763 122.961 105.805 122.675 105.728 122.437C105.652 122.193 105.461 121.997 105.153 121.847C104.878 121.714 104.632 121.671 104.415 121.719C104.201 121.762 104.007 121.887 103.832 122.096L102.977 121.611C103.268 121.218 103.632 120.975 104.071 120.882C104.516 120.791 104.994 120.87 105.507 121.119C106.09 121.402 106.457 121.774 106.607 122.233C106.765 122.69 106.708 123.2 106.435 123.761L105.621 125.437C105.571 125.539 105.552 125.62 105.563 125.679C105.583 125.735 105.633 125.783 105.714 125.822L105.868 125.897L105.537 126.577C105.508 126.569 105.462 126.553 105.4 126.53C105.338 126.507 105.275 126.479 105.21 126.448C105.026 126.358 104.882 126.251 104.776 126.127C104.675 126.004 104.625 125.86 104.626 125.694C104.629 125.522 104.687 125.32 104.8 125.088L104.869 125.172C104.734 125.339 104.559 125.461 104.342 125.536C104.131 125.613 103.894 125.642 103.631 125.62C103.375 125.597 103.121 125.523 102.867 125.4ZM103.335 124.787C103.594 124.912 103.839 124.971 104.07 124.963C104.303 124.95 104.514 124.879 104.703 124.751C104.893 124.622 105.042 124.445 105.152 124.218L105.286 123.943L103.905 123.572C103.622 123.495 103.401 123.484 103.241 123.54C103.088 123.593 102.973 123.7 102.894 123.862C102.805 124.045 102.797 124.218 102.872 124.381C102.954 124.541 103.109 124.676 103.335 124.787ZM106.262 126.929L108.354 122.622L109.139 123.003L108.617 124.161L108.556 124.101C108.804 123.741 109.061 123.515 109.325 123.424C109.595 123.335 109.884 123.365 110.192 123.515L110.605 123.715L110.231 124.484L109.818 124.284C109.602 124.179 109.404 124.126 109.225 124.125C109.045 124.125 108.882 124.179 108.735 124.288C108.594 124.4 108.468 124.571 108.355 124.804L107.12 127.345L106.262 126.929ZM110.744 129.106C110.334 128.906 110.077 128.665 109.975 128.382C109.872 128.099 109.918 127.757 110.112 127.358L112.129 123.205L112.987 123.622L111.001 127.71C110.904 127.91 110.881 128.068 110.93 128.186C110.98 128.303 111.094 128.405 111.272 128.492L111.887 128.791L111.545 129.495L110.744 129.106ZM110.64 124.603L110.982 123.898L113.637 125.188L113.295 125.893L110.64 124.603ZM114.02 130.817C113.599 130.613 113.279 130.344 113.061 130.011C112.848 129.681 112.74 129.305 112.738 128.884C112.741 128.465 112.853 128.029 113.073 127.576C113.293 127.122 113.566 126.768 113.89 126.512C114.222 126.253 114.584 126.105 114.976 126.069C115.37 126.026 115.772 126.105 116.182 126.304C116.571 126.493 116.869 126.751 117.076 127.079C117.287 127.401 117.39 127.772 117.387 128.19C117.389 128.612 117.273 129.062 117.04 129.543L116.934 129.761L113.842 128.259C113.659 128.691 113.616 129.06 113.713 129.368C113.816 129.678 114.04 129.917 114.386 130.084C114.639 130.208 114.879 130.25 115.104 130.213C115.329 130.176 115.522 130.073 115.684 129.904L116.547 130.394C116.239 130.738 115.858 130.953 115.403 131.039C114.956 131.122 114.495 131.048 114.02 130.817ZM114.156 127.612L116.342 128.673C116.501 128.277 116.528 127.94 116.423 127.662C116.323 127.387 116.125 127.177 115.828 127.033C115.52 126.883 115.22 126.857 114.925 126.955C114.639 127.049 114.383 127.268 114.156 127.612ZM116.879 132.086L118.971 127.779L119.757 128.161L119.235 129.318L119.174 129.258C119.422 128.899 119.678 128.673 119.943 128.581C120.213 128.492 120.501 128.523 120.809 128.672L121.222 128.873L120.848 129.642L120.436 129.441C120.22 129.336 120.022 129.283 119.842 129.283C119.662 129.282 119.499 129.336 119.353 129.445C119.212 129.557 119.085 129.729 118.972 129.961L117.737 132.503L116.879 132.086ZM121.151 134.862L129.247 138.794L133.179 130.699L125.084 126.766L121.151 134.862Z" fill="#91949F"/>
</g>
<defs>
<filter id="filter0_d_176_856" x="-3.36133" y="0" width="210.426" height="184.363" filterUnits="userSpaceOnUse" color-interpolation-filters="sRGB">
<feFlood flood-opacity="0" result="BackgroundImageFix"/>
<feColorMatrix in="SourceAlpha" type="matrix" values="0 0 0 0 0 0 0 0 0 0 0 0 0 0 0 0 0 0 127 0" result="hardAlpha"/>
<feOffset dy="6"/>
<feGaussianBlur stdDeviation="3"/>
<feComposite in2="hardAlpha" operator="out"/>
<feColorMatrix type="matrix" values="0 0 0 0 0 0 0 0 0 0 0 0 0 0 0 0 0 0 0.25 0"/>
<feBlend mode="normal" in2="BackgroundImageFix" result="effect1_dropShadow_176_856"/>
<feBlend mode="normal" in="SourceGraphic" in2="effect1_dropShadow_176_856" result="shape"/>
</filter>
</defs>
</svg>
